<svg viewBox="0 -7 456.65885 456" width="38" height="38" fill="#000" xmlns="http://www.w3.org/2000/svg"><path d="m261.355469 159.628906c-9.21875-.015625-16.683594-7.484375-16.703125-16.699218 0-5.523438-4.476563-10-10-10-5.519532 0-10 4.476562-10 10 .023437 16.40625 10.917968 30.8125 26.703125 35.300781v8.097656c0 5.523437 4.476562 10 10 10 5.523437 0 10-4.476563 10-10v-8.097656c17.621093-4.992188 28.867187-22.210938 26.347656-40.355469-2.519531-18.140625-18.03125-31.648438-36.347656-31.644531-9.222657 0-16.703125-7.476563-16.703125-16.699219 0-9.226562 7.480468-16.703125 16.703125-16.703125 9.222656 0 16.699219 7.476563 16.699219 16.703125 0 5.519531 4.476562 10 10 10 5.523437 0 10-4.480469 10-10-.019532-16.410156-10.917969-30.816406-26.699219-35.300781v-6c0-5.523438-4.476563-10-10-10-5.523438 0-10 4.476562-10 10v6c-17.625 4.988281-28.871094 22.210937-26.347657 40.351562 2.519532 18.144531 18.03125 31.648438 36.347657 31.648438 9.222656 0 16.699219 7.476562 16.699219 16.699219 0 9.222656-7.476563 16.699218-16.699219 16.699218zm0 0"/><path d="m150.253906 332.929688c-30.042968 0-54.398437 24.355468-54.398437 54.398437 0 30.046875 24.355469 54.402344 54.398437 54.402344 30.042969 0 54.398438-24.355469 54.398438-54.402344-.03125-30.03125-24.367188-54.367187-54.398438-54.398437zm0 88.800781c-19 0-34.398437-15.402344-34.398437-34.402344 0-18.996094 15.398437-34.398437 34.398437-34.398437s34.398438 15.402343 34.398438 34.398437c0 19-15.398438 34.402344-34.398438 34.402344zm0 0"/><path d="m446.753906 104.628906h-69.101562c-6.398438-58.597656-56.097656-104.300781-116.296875-104.300781-60.203125 0-109.902344 45.703125-116.300781 104.300781h-51.402344l-7.097656-40.300781c-4.4375-24.808594-23.882813-44.210937-48.699219-48.597656l-26.101563-4.601563c-5.441406-.964844-10.632812 2.660156-11.601562 8.101563-.964844 5.4375 2.660156 10.632812 8.101562 11.597656l26.101563 4.601563c16.527343 2.929687 29.46875 15.871093 32.398437 32.398437l35.398438 199.703125c4.183594 23.894531 24.941406 41.320312 49.203125 41.296875h210c22.0625.066406 41.542969-14.371094 47.898437-35.5l47-155.796875c.871094-3.042969.320313-6.316406-1.5-8.902344-1.902344-2.5-4.855468-3.976562-8-4zm-185.398437-84.300781c53.570312 0 97 43.429687 97 97 0 53.574219-43.429688 97-97 97-53.574219 0-97-43.425781-97-97 .050781-53.550781 43.449219-96.949219 97-97zm128.796875 247.101563c-3.769532 12.6875-15.460938 21.363281-28.699219 21.300781h-210c-14.566406.039062-27.035156-10.441407-29.5-24.800781l-24.699219-139.398438h47.398438c3.875 61.664062 55.015625 109.695312 116.800781 109.695312 61.789063 0 112.929687-48.03125 116.800781-109.695312h55.101563zm0 0"/><path d="m360.253906 332.929688c-30.042968 0-54.398437 24.355468-54.398437 54.398437 0 30.046875 24.355469 54.402344 54.398437 54.402344 30.042969 0 54.398438-24.355469 54.398438-54.402344-.03125-30.03125-24.367188-54.367187-54.398438-54.398437zm0 88.800781c-19 0-34.398437-15.402344-34.398437-34.402344 0-18.996094 15.398437-34.398437 34.398437-34.398437s34.398438 15.402343 34.398438 34.398437c0 19-15.398438 34.402344-34.398438 34.402344zm0 0"/></svg>